<svg xmlns="http://www.w3.org/2000/svg" width="115.473" height="81.144" viewBox="0 0 115.473 81.144">
  <g id="Group_3" data-name="Group 3" transform="translate(0.07 0.05)">
    <path id="Path_13" data-name="Path 13" stroke="#59545e" d="M1.225,67.587A2.351,2.351,0,0,0,4.2,68.732L76.777,46.066a11.674,11.674,0,0,0,7.555-7.1c2.061-5.037-.687-13.05-3.205-17.629S72.885,10.58,67.619,9.664A12.633,12.633,0,0,0,57.546,12.64L1.683,64.382A2.462,2.462,0,0,0,1.225,67.587Z" fill="#ffb973" transform="translate(0 11.283)" stroke-linecap="round" stroke-linejoin="round" stroke-miterlimit="22.926" stroke-width="1.701" fill-rule="evenodd"/>
    <path id="Path_14" data-name="Path 14" stroke="#59545e" d="M44.563,44.529,74.1,38.118l-2.976-5.037L49.142,31.937,73.41,17.284l-1.6-2.747-1.6-2.747L45.479,25.526,55.552,5.837,52.576.8,32.2,23.237a28.726,28.726,0,0,1,8.242,9.387A26.431,26.431,0,0,1,44.563,44.529Z" fill="#a7ca84" transform="translate(40.456 0)" stroke-linecap="round" stroke-linejoin="round" stroke-miterlimit="22.926" stroke-width="1.701" fill-rule="evenodd"/>
    <line id="Line_1" data-name="Line 1" x2="5.953" y2="10.074" transform="translate(44.725 36.058)" fill="none" stroke="#59545e" stroke-linecap="round" stroke-linejoin="round" stroke-miterlimit="22.926" stroke-width="1.701"/>
    <line id="Line_2" data-name="Line 2" x2="3.892" y2="6.868" transform="translate(44.038 59.639)" fill="none" stroke="#59545e" stroke-linecap="round" stroke-linejoin="round" stroke-miterlimit="22.926" stroke-width="1.701"/>
    <line id="Line_3" data-name="Line 3" x2="8.7" y2="14.881" transform="translate(66.703 42.926)" fill="none" stroke="#59545e" stroke-linecap="round" stroke-linejoin="round" stroke-miterlimit="22.926" stroke-width="1.701"/>
    <line id="Line_4" data-name="Line 4" x2="3.892" y2="6.639" transform="translate(21.143 58.723)" fill="none" stroke="#59545e" stroke-linecap="round" stroke-linejoin="round" stroke-miterlimit="22.926" stroke-width="1.701"/>
  </g>
</svg>
