<svg xmlns="http://www.w3.org/2000/svg" width="80.539" height="81.05" viewBox="0 0 80.539 81.05">
  <g id="Group_4" data-name="Group 4" transform="translate(-0.05 -0.05)">
    <path id="Path_15" data-name="Path 15" d="M.9,38.433V25.786a6.755,6.755,0,0,0,4.08-6.323A6.755,6.755,0,0,0,.9,13.139V.9L28.234,3.96v.2c0,3.468,3.06,6.119,6.935,6.119,3.264,0,6.119-2.04,6.731-4.9l37.737,4.08V46.184c.2,14.483-5.915,25.294-17.542,34.065l-39.98-27.13a10.239,10.239,0,0,0,.408-2.448,6.878,6.878,0,0,0-6.935-6.935A7.273,7.273,0,0,0,10.9,45.368Z" fill="#ffd073" stroke="#59545e" stroke-linecap="round" stroke-linejoin="round" stroke-miterlimit="22.926" stroke-width="1.701" fill-rule="evenodd"/>
    <line id="Line_5" data-name="Line 5" y1="24.886" transform="translate(62.095 55.363)" fill="none" stroke="#59545e" stroke-linecap="round" stroke-linejoin="round" stroke-miterlimit="22.926" stroke-width="1.701"/>
    <path id="Path_16" data-name="Path 16" d="M.9.9,28.234,3.96v.2c0,3.468,3.06,6.119,6.935,6.119,3.264,0,6.119-2.04,6.731-4.9l37.737,4.08c1.02,15.911-5.915,28.557-17.542,38.349L50.06,38.637a7.058,7.058,0,0,0,3.06-5.711,6.915,6.915,0,0,0-13.463-2.244Z" fill="#ffe495" stroke="#59545e" stroke-linecap="round" stroke-linejoin="round" stroke-miterlimit="22.926" stroke-width="1.701" fill-rule="evenodd"/>
    <path id="Path_17" data-name="Path 17" stroke="#59545e" d="M20.1,18.2a6.6,6.6,0,0,0,5.1,3.468" fill="none" transform="translate(19.965 17.989)" stroke-linecap="round" stroke-linejoin="round" stroke-miterlimit="22.926" stroke-width="1.701" fill-rule="evenodd"/>
    <line id="Line_6" data-name="Line 6" x2="4.08" y2="18.97" transform="translate(21.706 17.423)" fill="none" stroke="#59545e" stroke-linecap="round" stroke-linejoin="round" stroke-miterlimit="22.926" stroke-width="1.701"/>
    <line id="Line_7" data-name="Line 7" x2="4.08" y2="18.97" transform="translate(13.547 10.487)" fill="none" stroke="#59545e" stroke-linecap="round" stroke-linejoin="round" stroke-miterlimit="22.926" stroke-width="1.701"/>
  </g>
</svg>
