<svg xmlns="http://www.w3.org/2000/svg" width="71.702" height="102.224" viewBox="0 0 71.702 102.224">
  <g id="Group_2" data-name="Group 2" transform="translate(-0.045 -0.05)">
    <path id="Path_1" data-name="Path 1" stroke="#59545e" d="M26.621,81.011C19.033,76.55.482,52.123.9,36.617,1.115,26.846,5.963,19.624,15.66,17.5a26.087,26.087,0,0,0,12.016,5.31c4.427.85,7.167,1.062,8.221.85h0a41.341,41.341,0,0,0,8.221-.85A28.479,28.479,0,0,0,56.134,17.5c9.486,1.912,14.334,9.134,14.756,19.117.422,15.718-18.34,39.933-25.929,44.394C42.01,83.347,30.837,83.347,26.621,81.011Z" fill="#ffa19c" transform="translate(0 18.66)" stroke-linecap="round" stroke-linejoin="round" stroke-miterlimit="22.926" stroke-width="1.701" fill-rule="evenodd"/>
    <path id="Path_2" data-name="Path 2" stroke="#59545e" d="M17.837,49.547a7.959,7.959,0,0,1-2.337-5.1A2.454,2.454,0,0,1,18.049,41.9h0" fill="none" transform="translate(16.172 46.088)" stroke-linecap="round" stroke-linejoin="round" stroke-miterlimit="22.926" stroke-width="1.701" fill-rule="evenodd"/>
    <path id="Path_3" data-name="Path 3" stroke="#59545e" d="M11.537,43.347a7.959,7.959,0,0,1-2.337-5.1A2.454,2.454,0,0,1,11.749,35.7h0" fill="none" transform="translate(9.195 39.119)" stroke-linecap="round" stroke-linejoin="round" stroke-miterlimit="22.926" stroke-width="1.701" fill-rule="evenodd"/>
    <path id="Path_4" data-name="Path 4" stroke="#59545e" d="M7.537,36.047a7.02,7.02,0,0,1-2.337-5.1A2.454,2.454,0,0,1,7.749,28.4h0" fill="none" transform="translate(4.837 30.913)" stroke-linecap="round" stroke-linejoin="round" stroke-miterlimit="22.926" stroke-width="1.701" fill-rule="evenodd"/>
    <path id="Path_5" data-name="Path 5" stroke="#59545e" d="M10.837,29.947a7.959,7.959,0,0,1-2.337-5.1A2.454,2.454,0,0,1,11.049,22.3h0" fill="none" transform="translate(8.42 24.056)" stroke-linecap="round" stroke-linejoin="round" stroke-miterlimit="22.926" stroke-width="1.701" fill-rule="evenodd"/>
    <path id="Path_6" data-name="Path 6" stroke="#59545e" d="M17.437,38.547a7.959,7.959,0,0,1-2.337-5.1A2.454,2.454,0,0,1,17.649,30.9h0" fill="none" transform="translate(15.729 33.723)" stroke-linecap="round" stroke-linejoin="round" stroke-miterlimit="22.926" stroke-width="1.701" fill-rule="evenodd"/>
    <path id="Path_7" data-name="Path 7" stroke="#59545e" d="M20.537,31.447a7.959,7.959,0,0,1-2.337-5.1A2.454,2.454,0,0,1,20.749,23.8h0" fill="none" transform="translate(19.162 25.742)" stroke-linecap="round" stroke-linejoin="round" stroke-miterlimit="22.926" stroke-width="1.701" fill-rule="evenodd"/>
    <path id="Path_8" data-name="Path 8" stroke="#59545e" d="M27.237,34.747a7.959,7.959,0,0,1-2.337-5.1A2.454,2.454,0,0,1,27.449,27.1h0" fill="none" transform="translate(26.581 29.452)" stroke-linecap="round" stroke-linejoin="round" stroke-miterlimit="22.926" stroke-width="1.701" fill-rule="evenodd"/>
    <path id="Path_9" data-name="Path 9" stroke="#59545e" d="M31.137,30.347a7.959,7.959,0,0,1-2.337-5.1A2.454,2.454,0,0,1,31.349,22.7h0" fill="none" transform="translate(30.832 24.506)" stroke-linecap="round" stroke-linejoin="round" stroke-miterlimit="22.926" stroke-width="1.701" fill-rule="evenodd"/>
    <path id="Path_10" data-name="Path 10" stroke="#59545e" d="M23.137,44.347a7.959,7.959,0,0,1-2.337-5.1A2.454,2.454,0,0,1,23.349,36.7h0" fill="none" transform="translate(22.041 40.243)" stroke-linecap="round" stroke-linejoin="round" stroke-miterlimit="22.926" stroke-width="1.701" fill-rule="evenodd"/>
    <path id="Path_11" data-name="Path 11" stroke="#59545e" d="M27.937,42.647a7.02,7.02,0,0,1-2.337-5.1A2.454,2.454,0,0,1,28.149,35h0" fill="none" transform="translate(27.357 38.332)" stroke-linecap="round" stroke-linejoin="round" stroke-miterlimit="22.926" stroke-width="1.701" fill-rule="evenodd"/>
    <path id="Path_12" data-name="Path 12" stroke="#59545e" d="M17.592,28.089c-5.049-2.549-8.836-5.948-9.888-8.5C5.81,14.919,5.81,12.8,5.81,12.8,1.181,27.664,8.756,38.5,23.483,41.47c5.891,1.274,8.836.85,8.836.85a39.875,39.875,0,0,0,8.836-.85C55.884,38.5,63.458,27.664,58.829,12.8c0,7.222-5.681,12.32-11.572,15.294.631-4.036-.21-9.346-1.683-14.019a37.014,37.014,0,0,1-.842,6.372c-.842,4.248-4.418,9.134-9.678,9.771C33.792,20.867,33.792,14.069,38,1.962L30.847.9S26.218,13.22,28.322,30c-4.839-1.487-7.153-5.735-7.995-9.771a34.749,34.749,0,0,1-.842-6.372C17.8,18.743,16.961,24.053,17.592,28.089Z" fill="#c1d97a" transform="translate(4.002 0)" stroke-linecap="round" stroke-linejoin="round" stroke-miterlimit="22.926" stroke-width="1.701" fill-rule="evenodd"/>
  </g>
</svg>
